<svg xmlns="http://www.w3.org/2000/svg" version="1.1" xmlns:xlink="http://www.w3.org/1999/xlink" xmlns:svgjs="http://svgjs.dev/svgjs" width="1500" height="1500" viewBox="0 0 1500 1500"><rect width="1500" height="1500" fill="#000000"></rect><g transform="matrix(0.6666666666666666,0,0,0.6666666666666666,249.39393939393943,662.9007367768953)"><svg viewBox="0 0 396 69" data-background-color="#ffffff" preserveAspectRatio="xMidYMid meet" height="261" width="1500" xmlns="http://www.w3.org/2000/svg" xmlns:xlink="http://www.w3.org/1999/xlink"><g id="tight-bounds" transform="matrix(1,0,0,1,0.2400000000000091,0.039363002265645264)"><svg viewBox="0 0 395.52 68.9212739954687" height="68.9212739954687" width="395.52"><g><svg viewBox="0 0 609.1885174093482 106.1540471360817" height="68.9212739954687" width="395.52"><g><rect width="9.525454250456214" height="106.1540471360817" x="179.20731904775" y="0" fill="#ffffff" opacity="1" stroke-width="0" stroke="transparent" fill-opacity="1" class="rect-qz-0" data-fill-palette-color="primary" rx="1%" id="qz-0" data-palette-color="#0080ff"></rect></g><g transform="matrix(1,0,0,1,213.66851740934814,0.26406479387084403)"><svg viewBox="0 0 395.52 105.62591754834001" height="105.62591754834001" width="395.52"><g id="textblocktransform"><svg viewBox="0 0 395.52 105.62591754834001" height="105.62591754834001" width="395.52" id="textblock"><g><svg viewBox="0 0 395.52 105.62591754834001" height="105.62591754834001" width="395.52"><g transform="matrix(1,0,0,1,0,0)"><svg width="395.52" viewBox="1.05 -36.3 137.04 36.599999999999994" height="105.62591754834001" data-palette-color="#0080ff"><path d="M15.25 0.2L15.25 0.2Q13.8 0.25 12.35-0.05 10.9-0.35 9.9-1.3L9.9-1.3Q9.95-2.55 9.88-5 9.8-7.45 9.6-10.48 9.4-13.5 8.97-16.6 8.55-19.7 7.88-22.33 7.2-24.95 6.25-26.55 5.3-28.15 4-28.15L4-28.15Q2.85-28.15 1.4-26.9L1.4-26.9 1.05-27.2Q2.45-31.5 4.73-33.75 7-36 9.45-36L9.45-36Q11.6-36 13.05-34.5 14.5-33 15.38-30.48 16.25-27.95 16.63-24.83 17-21.7 17-18.45L17-18.45Q17-15.85 16.8-13.35 16.6-10.85 16.25-8.75L16.25-8.75Q18.9-12.1 20.7-16.07 22.5-20.05 23.45-23.98 24.4-27.9 24.4-31.05L24.4-31.05Q24.4-31.65 24.35-32.27 24.3-32.9 24.2-33.4L24.2-33.4Q25.25-34.75 26.9-35.48 28.55-36.2 30.2-36.2L30.2-36.2Q31.8-36.2 33-35.52 34.2-34.85 34.5-33.4L34.5-33.4Q33.85-28.65 31.93-23.9 30-19.15 27.25-14.73 24.5-10.3 21.38-6.5 18.25-2.7 15.25 0.2ZM47.75 0.3L47.75 0.3Q44.6 0.3 42.32-0.98 40.05-2.25 38.57-4.48 37.1-6.7 36.42-9.53 35.75-12.35 35.85-15.4L35.85-15.4Q36.05-20.85 37.85-24.8 39.65-28.75 42.4-31.3 45.15-33.85 48.32-35.08 51.5-36.3 54.45-36.3L54.45-36.3Q56.95-36.3 58.97-35.48 61-34.65 62.2-33.08 63.4-31.5 63.4-29.25L63.4-29.25Q63.4-27.5 62.37-25.88 61.35-24.25 59.27-23.23 57.2-22.2 53.95-22.2L53.95-22.2Q54.5-23.8 54.75-25 55-26.2 55-27.05L55-27.05Q55-28.8 54.2-29.43 53.4-30.05 52.2-30.05L52.2-30.05Q50.75-30.05 49.45-29 48.15-27.95 47.12-26.18 46.1-24.4 45.5-22.25 44.9-20.1 44.8-17.9L44.8-17.9Q44.6-12.35 46.4-9.5 48.2-6.65 51.05-6.65L51.05-6.65Q53.25-6.65 55.92-8.45 58.6-10.25 61.2-13.9L61.2-13.9 61.85-13.6Q61.2-9.1 59-6 56.8-2.9 53.82-1.3 50.85 0.3 47.75 0.3ZM70.34 0.2L70.34 0.2Q68.2 0.2 66.9-1.25 65.59-2.7 65.59-5.2L65.59-5.2Q65.59-6.55 65.95-8.72 66.3-10.9 66.82-13.53 67.34-16.15 67.84-18.88 68.34-21.6 68.7-24.15 69.05-26.7 69.05-28.65L69.05-28.65Q69.05-31.1 68.4-32.2L68.4-32.2 68.4-32.5Q69.5-33.75 70.8-34.35 72.09-34.95 73.34-34.95L73.34-34.95Q75.25-34.95 76.59-33.6 77.95-32.25 77.95-29.55L77.95-29.55Q77.95-28.1 77.55-26 77.15-23.9 76.59-21.6 76.05-19.3 75.5-17.3L75.5-17.3Q76.45-19.15 78.02-20.98 79.59-22.8 81.62-24 83.65-25.2 85.84-25.2L85.84-25.2Q88.34-25.2 89.22-23.65 90.09-22.1 90.09-19.8L90.09-19.8Q90.09-17.7 89.65-15.33 89.2-12.95 88.75-10.78 88.3-8.6 88.3-7.15L88.3-7.15Q88.3-5.05 89.55-5.05L89.55-5.05Q90.09-5.05 90.52-5.38 90.95-5.7 91.15-6.1L91.15-6.1 91.5-5.85Q91.5-3.9 90.55-2.55 89.59-1.2 88.12-0.5 86.65 0.2 85.09 0.2L85.09 0.2Q83.05 0.2 81.4-1.18 79.75-2.55 79.75-5.65L79.75-5.65Q79.75-7.4 80.22-9.45 80.7-11.5 81.15-13.43 81.59-15.35 81.59-16.65L81.59-16.65Q81.59-18.35 80.4-18.35L80.4-18.35Q79.3-18.35 78-17.25 76.7-16.15 75.72-14.5 74.75-12.85 74.45-11.25L74.45-11.25Q74.34-10.85 74.34-10.3L74.34-10.3Q74.34-9.05 74.72-7.9 75.09-6.75 75.09-5.2L75.09-5.2Q75.09-2.9 73.9-1.35 72.7 0.2 70.34 0.2ZM112.34 0.25L112.34 0.25Q110.59 0.25 109.29-0.9 107.99-2.05 107.99-4.65L107.99-4.65Q107.99-4.9 107.99-5.15 107.99-5.4 108.04-5.65L108.04-5.65Q106.54-2.65 104.67-1.23 102.79 0.2 100.89 0.2L100.89 0.2Q99.14 0.2 97.59-1.03 96.04-2.25 95.09-4.65 94.14-7.05 94.14-10.45L94.14-10.45Q94.14-13.95 95.12-16.7 96.09-19.45 97.69-21.35 99.29-23.25 101.19-24.23 103.09-25.2 104.89-25.2L104.89-25.2Q106.89-25.2 108.49-23.98 110.09-22.75 110.69-20.1L110.69-20.1Q110.84-20.95 110.92-21.65 110.99-22.35 110.99-22.6L110.99-22.6Q111.04-23.95 112.37-24.6 113.69-25.25 115.29-25.25L115.29-25.25Q116.69-25.25 117.94-24.7 119.19-24.15 119.64-22.85L119.64-22.85 119.74-22.55Q119.14-21.2 118.54-19.3 117.94-17.4 117.44-15.33 116.94-13.25 116.64-11.28 116.34-9.3 116.34-7.8L116.34-7.8Q116.34-6.15 116.69-5.53 117.04-4.9 117.54-4.9L117.54-4.9Q118.39-4.9 119.09-6.1L119.09-6.1 119.49-5.9Q119.49-4.2 118.39-2.8 117.29-1.4 115.64-0.58 113.99 0.25 112.34 0.25ZM104.19-6.1L104.19-6.1Q105.49-6.1 107.07-8.43 108.64-10.75 109.79-15.1L109.79-15.1Q109.89-15.55 109.99-15.98 110.09-16.4 110.14-16.8L110.14-16.8Q109.34-18.65 108.47-19.43 107.59-20.2 106.74-20.2L106.74-20.2Q105.49-20.2 104.42-18.88 103.34-17.55 102.67-15.55 101.99-13.55 101.99-11.55L101.99-11.55Q101.99-8.8 102.62-7.45 103.24-6.1 104.19-6.1ZM129.44 0.2L129.44 0.2Q127.84 0.2 126.42-0.53 124.99-1.25 124.12-2.8 123.24-4.35 123.24-6.75L123.24-6.75Q123.24-8.05 123.49-10.15 123.74-12.25 124.17-14.75 124.59-17.25 125.04-19.75L125.04-19.75Q124.04-19.7 123.12-19.55 122.19-19.4 121.29-19.2L121.29-19.2 121.19-19.55Q122.19-20.75 123.29-21.6 124.39-22.45 125.59-23L125.59-23Q126.24-26.3 126.69-28.73 127.14-31.15 127.14-31.6L127.14-31.6Q127.14-32.45 128.47-33 129.79-33.55 131.44-33.55L131.44-33.55Q132.89-33.55 134.17-33 135.44-32.45 135.89-31.15L135.89-31.15Q135.59-30.85 135.04-28.93 134.49-27 133.89-24.25L133.89-24.25Q134.84-24.2 135.84-24.15 136.84-24.1 137.89-24L137.89-24Q137.99-23.7 138.04-23.35 138.09-23 138.09-22.6L138.09-22.6Q138.09-21.85 137.87-20.98 137.64-20.1 137.34-19.4L137.34-19.4Q136.14-19.5 135.09-19.63 134.04-19.75 133.04-19.8L133.04-19.8Q132.64-17.65 132.32-15.5 131.99-13.35 131.82-11.6 131.64-9.85 131.64-8.85L131.64-8.85Q131.64-6.75 132.42-6.05 133.19-5.35 134.29-5.35L134.29-5.35Q135.29-5.35 136.09-5.75 136.89-6.15 137.24-6.7L137.24-6.7 137.74-6.55Q137.44-4.5 136.14-2.98 134.84-1.45 133.04-0.63 131.24 0.2 129.44 0.2Z" opacity="1" transform="matrix(1,0,0,1,0,0)" fill="#ffffff" class="wordmark-text-0" data-fill-palette-color="primary" id="text-0"></path></svg></g></svg></g></svg></g></svg></g><g transform="matrix(1,0,0,1,0,0.26406479387084403)"><svg viewBox="0 0 154.27157493660806 105.62591754834001" height="105.62591754834001" width="154.27157493660806"><g><svg xmlns="http://www.w3.org/2000/svg" xmlns:xlink="http://www.w3.org/1999/xlink" version="1.1" x="0" y="0" viewBox="15.991999999999997 27 68.01500008003524 46.56818207408713" enable-background="new 0 0 100 100" xml:space="preserve" height="105.62591754834001" width="154.27157493660806" class="icon-icon-0" data-fill-palette-color="accent" id="icon-0"><path d="M63.08 33.979c-1.294 0-2.562 0.089-3.791 0.258-0.1 0.014-0.186 0.076-0.229 0.166-0.044 0.09-0.039 0.196 0.012 0.283 1.439 2.441 2.265 5.152 2.265 8.012 0 7.441-5.48 13.959-13.497 17.124-0.1 0.039-0.171 0.128-0.187 0.233-0.017 0.105 0.024 0.212 0.107 0.278 3.334 2.688 7.905 4.497 13.04 4.914 0.095 0.008 0.181 0.053 0.241 0.125 0.06 0.072 0.088 0.166 0.078 0.26-0.331 3.059-0.961 6.038-1.298 7.51-0.033 0.144 0.027 0.293 0.152 0.372 0.124 0.079 0.285 0.071 0.401-0.02 4.522-3.521 7.453-6.944 8.806-8.684 0.073-0.094 0.175-0.159 0.291-0.187 8.432-2.025 14.536-7.952 14.536-14.95C84.008 41.006 74.638 33.979 63.08 33.979z" fill="#ffffff" data-fill-palette-color="accent"></path><path d="M57.85 42.697C57.85 34.028 48.479 27 36.922 27c-11.559 0-20.93 7.028-20.93 15.697 0 6.997 6.106 12.927 14.538 14.952 0.114 0.027 0.217 0.094 0.29 0.187 1.354 1.735 4.284 5.159 8.807 8.68 0.116 0.091 0.277 0.099 0.402 0.019 0.124-0.079 0.186-0.228 0.152-0.372-0.339-1.471-0.97-4.447-1.301-7.507-0.01-0.094 0.019-0.188 0.078-0.26 0.061-0.072 0.146-0.118 0.24-0.125C49.682 57.415 57.85 50.785 57.85 42.697z" fill="#ffffff" data-fill-palette-color="accent"></path></svg></g></svg></g></svg></g><defs></defs></svg><rect width="395.52" height="68.9212739954687" fill="none" stroke="none" visibility="hidden"></rect></g></svg></g></svg>